<mxfile host="app.diagrams.net" modified="2024-05-22T17:48:29.877Z" agent="Mozilla/5.0 (X11; Ubuntu; Linux x86_64; rv:125.0) Gecko/20100101 Firefox/125.0" etag="QdAYi_chIuro_3km8Jnk" version="24.4.6" type="device">
  <diagram name="Página-1" id="4RbDEC1ftq5Z9n6P_oA_">
    <mxGraphModel dx="1049" dy="612" grid="1" gridSize="10" guides="1" tooltips="1" connect="1" arrows="1" fold="1" page="1" pageScale="1" pageWidth="827" pageHeight="1169" math="0" shadow="0">
      <root>
        <mxCell id="0" />
        <mxCell id="1" parent="0" />
        <mxCell id="TBsZOaTkdkSCyyJF4Hoa-3" value="" style="edgeStyle=orthogonalEdgeStyle;rounded=0;orthogonalLoop=1;jettySize=auto;html=1;" edge="1" parent="1" source="TBsZOaTkdkSCyyJF4Hoa-1" target="TBsZOaTkdkSCyyJF4Hoa-2">
          <mxGeometry relative="1" as="geometry" />
        </mxCell>
        <mxCell id="TBsZOaTkdkSCyyJF4Hoa-26" value="" style="edgeStyle=orthogonalEdgeStyle;rounded=0;orthogonalLoop=1;jettySize=auto;html=1;" edge="1" parent="1" source="TBsZOaTkdkSCyyJF4Hoa-1" target="TBsZOaTkdkSCyyJF4Hoa-25">
          <mxGeometry relative="1" as="geometry" />
        </mxCell>
        <mxCell id="TBsZOaTkdkSCyyJF4Hoa-63" value="" style="edgeStyle=orthogonalEdgeStyle;rounded=0;orthogonalLoop=1;jettySize=auto;html=1;" edge="1" parent="1" source="TBsZOaTkdkSCyyJF4Hoa-1" target="TBsZOaTkdkSCyyJF4Hoa-62">
          <mxGeometry relative="1" as="geometry" />
        </mxCell>
        <mxCell id="TBsZOaTkdkSCyyJF4Hoa-1" value="Inicio" style="rounded=0;whiteSpace=wrap;html=1;fillColor=#d5e8d4;strokeColor=#82b366;" vertex="1" parent="1">
          <mxGeometry x="840" y="250" width="120" height="60" as="geometry" />
        </mxCell>
        <mxCell id="TBsZOaTkdkSCyyJF4Hoa-5" value="" style="edgeStyle=orthogonalEdgeStyle;rounded=0;orthogonalLoop=1;jettySize=auto;html=1;dashed=1;dashPattern=8 8;" edge="1" parent="1" source="TBsZOaTkdkSCyyJF4Hoa-2" target="TBsZOaTkdkSCyyJF4Hoa-4">
          <mxGeometry relative="1" as="geometry" />
        </mxCell>
        <mxCell id="TBsZOaTkdkSCyyJF4Hoa-7" value="" style="edgeStyle=orthogonalEdgeStyle;rounded=0;orthogonalLoop=1;jettySize=auto;html=1;" edge="1" parent="1" source="TBsZOaTkdkSCyyJF4Hoa-2" target="TBsZOaTkdkSCyyJF4Hoa-6">
          <mxGeometry relative="1" as="geometry" />
        </mxCell>
        <mxCell id="TBsZOaTkdkSCyyJF4Hoa-2" value="&lt;div&gt;Función &lt;br&gt;&lt;/div&gt;&lt;div&gt;convertir_a_binario&lt;br&gt;&lt;/div&gt; " style="whiteSpace=wrap;html=1;rounded=0;" vertex="1" parent="1">
          <mxGeometry x="440" y="360" width="120" height="60" as="geometry" />
        </mxCell>
        <mxCell id="TBsZOaTkdkSCyyJF4Hoa-4" value="&lt;div&gt;Convierte una cadena de bytes a cadena binaria. &lt;br&gt;&lt;/div&gt;&lt;div&gt;Recibe una cadena de bytes&lt;br&gt;&lt;/div&gt;" style="whiteSpace=wrap;html=1;rounded=0;fillColor=#dae8fc;strokeColor=#6c8ebf;" vertex="1" parent="1">
          <mxGeometry x="187.5" y="360" width="190" height="60" as="geometry" />
        </mxCell>
        <mxCell id="TBsZOaTkdkSCyyJF4Hoa-9" value="" style="edgeStyle=orthogonalEdgeStyle;rounded=0;orthogonalLoop=1;jettySize=auto;html=1;" edge="1" parent="1" source="TBsZOaTkdkSCyyJF4Hoa-6" target="TBsZOaTkdkSCyyJF4Hoa-8">
          <mxGeometry relative="1" as="geometry" />
        </mxCell>
        <mxCell id="TBsZOaTkdkSCyyJF4Hoa-6" value="Para cada byte en la cadena de bytes" style="whiteSpace=wrap;html=1;rounded=0;" vertex="1" parent="1">
          <mxGeometry x="440" y="480" width="120" height="60" as="geometry" />
        </mxCell>
        <mxCell id="TBsZOaTkdkSCyyJF4Hoa-11" value="" style="edgeStyle=orthogonalEdgeStyle;rounded=0;orthogonalLoop=1;jettySize=auto;html=1;" edge="1" parent="1" source="TBsZOaTkdkSCyyJF4Hoa-8" target="TBsZOaTkdkSCyyJF4Hoa-10">
          <mxGeometry relative="1" as="geometry" />
        </mxCell>
        <mxCell id="TBsZOaTkdkSCyyJF4Hoa-8" value="Convierte cada byte a su representación binaria utilizando la función &lt;br&gt;bin(byte)" style="whiteSpace=wrap;html=1;rounded=0;" vertex="1" parent="1">
          <mxGeometry x="420" y="600" width="160" height="80" as="geometry" />
        </mxCell>
        <mxCell id="TBsZOaTkdkSCyyJF4Hoa-13" value="" style="edgeStyle=orthogonalEdgeStyle;rounded=0;orthogonalLoop=1;jettySize=auto;html=1;" edge="1" parent="1" source="TBsZOaTkdkSCyyJF4Hoa-10" target="TBsZOaTkdkSCyyJF4Hoa-12">
          <mxGeometry relative="1" as="geometry" />
        </mxCell>
        <mxCell id="TBsZOaTkdkSCyyJF4Hoa-10" value="&lt;div&gt;Elimina los primeros dos caracteres (&#39;0b&#39;), dejando solo la representación binaria pura.&lt;/div&gt;&lt;div&gt;bin(byte)[2:]&lt;br&gt;&lt;/div&gt;" style="whiteSpace=wrap;html=1;rounded=0;" vertex="1" parent="1">
          <mxGeometry x="395" y="730" width="210" height="90" as="geometry" />
        </mxCell>
        <mxCell id="TBsZOaTkdkSCyyJF4Hoa-17" value="" style="edgeStyle=orthogonalEdgeStyle;rounded=0;orthogonalLoop=1;jettySize=auto;html=1;" edge="1" parent="1" source="TBsZOaTkdkSCyyJF4Hoa-12" target="TBsZOaTkdkSCyyJF4Hoa-16">
          <mxGeometry relative="1" as="geometry" />
        </mxCell>
        <mxCell id="TBsZOaTkdkSCyyJF4Hoa-12" value="&lt;div&gt;Rellena con ceros a la izquierda hasta que tenga una longitud de 8 caracteres.&lt;/div&gt;bin(byte)[2:].zfill(8)" style="whiteSpace=wrap;html=1;rounded=0;" vertex="1" parent="1">
          <mxGeometry x="377.5" y="890" width="245" height="60" as="geometry" />
        </mxCell>
        <mxCell id="TBsZOaTkdkSCyyJF4Hoa-18" style="edgeStyle=orthogonalEdgeStyle;rounded=0;orthogonalLoop=1;jettySize=auto;html=1;entryX=0;entryY=0.5;entryDx=0;entryDy=0;" edge="1" parent="1" source="TBsZOaTkdkSCyyJF4Hoa-16" target="TBsZOaTkdkSCyyJF4Hoa-8">
          <mxGeometry relative="1" as="geometry">
            <Array as="points">
              <mxPoint x="250" y="1060" />
              <mxPoint x="250" y="640" />
            </Array>
          </mxGeometry>
        </mxCell>
        <mxCell id="TBsZOaTkdkSCyyJF4Hoa-21" value="" style="edgeStyle=orthogonalEdgeStyle;rounded=0;orthogonalLoop=1;jettySize=auto;html=1;" edge="1" parent="1" source="TBsZOaTkdkSCyyJF4Hoa-16" target="TBsZOaTkdkSCyyJF4Hoa-20">
          <mxGeometry relative="1" as="geometry" />
        </mxCell>
        <mxCell id="TBsZOaTkdkSCyyJF4Hoa-16" value="¿Hay mas bytes?" style="rhombus;whiteSpace=wrap;html=1;rounded=0;" vertex="1" parent="1">
          <mxGeometry x="460" y="1020" width="80" height="80" as="geometry" />
        </mxCell>
        <mxCell id="TBsZOaTkdkSCyyJF4Hoa-19" value="Si" style="text;html=1;align=center;verticalAlign=middle;whiteSpace=wrap;rounded=0;" vertex="1" parent="1">
          <mxGeometry x="360" y="1020" width="60" height="30" as="geometry" />
        </mxCell>
        <mxCell id="TBsZOaTkdkSCyyJF4Hoa-24" value="" style="edgeStyle=orthogonalEdgeStyle;rounded=0;orthogonalLoop=1;jettySize=auto;html=1;" edge="1" parent="1" source="TBsZOaTkdkSCyyJF4Hoa-20" target="TBsZOaTkdkSCyyJF4Hoa-23">
          <mxGeometry relative="1" as="geometry" />
        </mxCell>
        <mxCell id="TBsZOaTkdkSCyyJF4Hoa-20" value="Retorna la cadena binaria" style="whiteSpace=wrap;html=1;rounded=0;" vertex="1" parent="1">
          <mxGeometry x="440" y="1190" width="120" height="60" as="geometry" />
        </mxCell>
        <mxCell id="TBsZOaTkdkSCyyJF4Hoa-22" value="No" style="text;html=1;align=center;verticalAlign=middle;whiteSpace=wrap;rounded=0;" vertex="1" parent="1">
          <mxGeometry x="520" y="1120" width="60" height="30" as="geometry" />
        </mxCell>
        <mxCell id="TBsZOaTkdkSCyyJF4Hoa-23" value="Fin" style="whiteSpace=wrap;html=1;rounded=0;fillColor=#dae8fc;strokeColor=#6c8ebf;" vertex="1" parent="1">
          <mxGeometry x="440" y="1320" width="120" height="60" as="geometry" />
        </mxCell>
        <mxCell id="TBsZOaTkdkSCyyJF4Hoa-28" value="" style="edgeStyle=orthogonalEdgeStyle;rounded=0;orthogonalLoop=1;jettySize=auto;html=1;" edge="1" parent="1" source="TBsZOaTkdkSCyyJF4Hoa-25" target="TBsZOaTkdkSCyyJF4Hoa-27">
          <mxGeometry relative="1" as="geometry" />
        </mxCell>
        <mxCell id="TBsZOaTkdkSCyyJF4Hoa-30" value="" style="edgeStyle=orthogonalEdgeStyle;rounded=0;orthogonalLoop=1;jettySize=auto;html=1;dashed=1;dashPattern=8 8;" edge="1" parent="1" source="TBsZOaTkdkSCyyJF4Hoa-25" target="TBsZOaTkdkSCyyJF4Hoa-29">
          <mxGeometry relative="1" as="geometry" />
        </mxCell>
        <mxCell id="TBsZOaTkdkSCyyJF4Hoa-25" value="Función&lt;br&gt;decodificar_datos" style="whiteSpace=wrap;html=1;rounded=0;" vertex="1" parent="1">
          <mxGeometry x="840" y="360" width="120" height="60" as="geometry" />
        </mxCell>
        <mxCell id="TBsZOaTkdkSCyyJF4Hoa-33" value="" style="edgeStyle=orthogonalEdgeStyle;rounded=0;orthogonalLoop=1;jettySize=auto;html=1;" edge="1" parent="1" source="TBsZOaTkdkSCyyJF4Hoa-27" target="TBsZOaTkdkSCyyJF4Hoa-32">
          <mxGeometry relative="1" as="geometry" />
        </mxCell>
        <mxCell id="TBsZOaTkdkSCyyJF4Hoa-27" value="Creación de la variable bloque_completo, las listas de los componentes x,y,z y de los headers" style="whiteSpace=wrap;html=1;rounded=0;" vertex="1" parent="1">
          <mxGeometry x="797.5" y="460" width="205" height="70" as="geometry" />
        </mxCell>
        <mxCell id="TBsZOaTkdkSCyyJF4Hoa-29" value="Se espera una cadena binaria" style="whiteSpace=wrap;html=1;rounded=0;fillColor=#dae8fc;strokeColor=#6c8ebf;" vertex="1" parent="1">
          <mxGeometry x="660" y="360" width="120" height="60" as="geometry" />
        </mxCell>
        <mxCell id="TBsZOaTkdkSCyyJF4Hoa-35" value="" style="edgeStyle=orthogonalEdgeStyle;rounded=0;orthogonalLoop=1;jettySize=auto;html=1;" edge="1" parent="1" source="TBsZOaTkdkSCyyJF4Hoa-32" target="TBsZOaTkdkSCyyJF4Hoa-34">
          <mxGeometry relative="1" as="geometry" />
        </mxCell>
        <mxCell id="TBsZOaTkdkSCyyJF4Hoa-43" value="" style="edgeStyle=orthogonalEdgeStyle;rounded=0;orthogonalLoop=1;jettySize=auto;html=1;" edge="1" parent="1" source="TBsZOaTkdkSCyyJF4Hoa-32" target="TBsZOaTkdkSCyyJF4Hoa-42">
          <mxGeometry relative="1" as="geometry" />
        </mxCell>
        <mxCell id="TBsZOaTkdkSCyyJF4Hoa-32" value="len(bindata) % 8176 == 0" style="rhombus;whiteSpace=wrap;html=1;rounded=0;" vertex="1" parent="1">
          <mxGeometry x="805" y="585" width="190" height="110" as="geometry" />
        </mxCell>
        <mxCell id="TBsZOaTkdkSCyyJF4Hoa-51" style="edgeStyle=orthogonalEdgeStyle;rounded=0;orthogonalLoop=1;jettySize=auto;html=1;entryX=0.5;entryY=0;entryDx=0;entryDy=0;" edge="1" parent="1" source="TBsZOaTkdkSCyyJF4Hoa-34" target="TBsZOaTkdkSCyyJF4Hoa-47">
          <mxGeometry relative="1" as="geometry" />
        </mxCell>
        <mxCell id="TBsZOaTkdkSCyyJF4Hoa-34" value="Bloque completo = True" style="whiteSpace=wrap;html=1;rounded=0;" vertex="1" parent="1">
          <mxGeometry x="750" y="765" width="120" height="60" as="geometry" />
        </mxCell>
        <mxCell id="TBsZOaTkdkSCyyJF4Hoa-36" value="No" style="text;html=1;align=center;verticalAlign=middle;whiteSpace=wrap;rounded=0;" vertex="1" parent="1">
          <mxGeometry x="950" y="700" width="60" height="30" as="geometry" />
        </mxCell>
        <mxCell id="TBsZOaTkdkSCyyJF4Hoa-54" style="edgeStyle=orthogonalEdgeStyle;rounded=0;orthogonalLoop=1;jettySize=auto;html=1;entryX=0.5;entryY=0;entryDx=0;entryDy=0;" edge="1" parent="1" source="TBsZOaTkdkSCyyJF4Hoa-42" target="TBsZOaTkdkSCyyJF4Hoa-52">
          <mxGeometry relative="1" as="geometry" />
        </mxCell>
        <mxCell id="TBsZOaTkdkSCyyJF4Hoa-42" value="Bloque completo = False" style="whiteSpace=wrap;html=1;rounded=0;" vertex="1" parent="1">
          <mxGeometry x="960" y="765" width="120" height="60" as="geometry" />
        </mxCell>
        <mxCell id="TBsZOaTkdkSCyyJF4Hoa-44" value="Si" style="text;html=1;align=center;verticalAlign=middle;whiteSpace=wrap;rounded=0;" vertex="1" parent="1">
          <mxGeometry x="797.5" y="700" width="60" height="30" as="geometry" />
        </mxCell>
        <mxCell id="TBsZOaTkdkSCyyJF4Hoa-97" value="" style="edgeStyle=orthogonalEdgeStyle;rounded=0;orthogonalLoop=1;jettySize=auto;html=1;" edge="1" parent="1" source="TBsZOaTkdkSCyyJF4Hoa-47" target="TBsZOaTkdkSCyyJF4Hoa-96">
          <mxGeometry relative="1" as="geometry" />
        </mxCell>
        <mxCell id="TBsZOaTkdkSCyyJF4Hoa-47" value="Retorna los componentes, headers y salida de bloque completo" style="whiteSpace=wrap;html=1;rounded=0;" vertex="1" parent="1">
          <mxGeometry x="750" y="870" width="120" height="60" as="geometry" />
        </mxCell>
        <mxCell id="TBsZOaTkdkSCyyJF4Hoa-56" value="" style="edgeStyle=orthogonalEdgeStyle;rounded=0;orthogonalLoop=1;jettySize=auto;html=1;" edge="1" parent="1" source="TBsZOaTkdkSCyyJF4Hoa-52" target="TBsZOaTkdkSCyyJF4Hoa-55">
          <mxGeometry relative="1" as="geometry" />
        </mxCell>
        <mxCell id="TBsZOaTkdkSCyyJF4Hoa-52" value="Mientras el tamaño de la cadena binaria sea mayor o igual a 8176" style="whiteSpace=wrap;html=1;rounded=0;fillColor=#e1d5e7;strokeColor=#9673a6;" vertex="1" parent="1">
          <mxGeometry x="950" y="870" width="140" height="60" as="geometry" />
        </mxCell>
        <mxCell id="TBsZOaTkdkSCyyJF4Hoa-58" value="" style="edgeStyle=orthogonalEdgeStyle;rounded=0;orthogonalLoop=1;jettySize=auto;html=1;" edge="1" parent="1" source="TBsZOaTkdkSCyyJF4Hoa-55" target="TBsZOaTkdkSCyyJF4Hoa-57">
          <mxGeometry relative="1" as="geometry" />
        </mxCell>
        <mxCell id="TBsZOaTkdkSCyyJF4Hoa-55" value="&lt;div&gt;Llamar a la&amp;nbsp;función decodificar_bloque&lt;/div&gt;&lt;div&gt;Este decodifica los primeros 8176 datos de la cadena recibida y los devuelve a cuatro valores, los tres componentes y el header&lt;br&gt; &lt;/div&gt;" style="whiteSpace=wrap;html=1;rounded=0;" vertex="1" parent="1">
          <mxGeometry x="905" y="980" width="230" height="90" as="geometry" />
        </mxCell>
        <mxCell id="TBsZOaTkdkSCyyJF4Hoa-60" value="" style="edgeStyle=orthogonalEdgeStyle;rounded=0;orthogonalLoop=1;jettySize=auto;html=1;" edge="1" parent="1" source="TBsZOaTkdkSCyyJF4Hoa-57" target="TBsZOaTkdkSCyyJF4Hoa-59">
          <mxGeometry relative="1" as="geometry" />
        </mxCell>
        <mxCell id="TBsZOaTkdkSCyyJF4Hoa-57" value="Agrega los valores devueltos por la función a las listas originales" style="whiteSpace=wrap;html=1;rounded=0;" vertex="1" parent="1">
          <mxGeometry x="960" y="1109" width="120" height="60" as="geometry" />
        </mxCell>
        <mxCell id="TBsZOaTkdkSCyyJF4Hoa-61" style="edgeStyle=orthogonalEdgeStyle;rounded=0;orthogonalLoop=1;jettySize=auto;html=1;entryX=1;entryY=0.5;entryDx=0;entryDy=0;" edge="1" parent="1" source="TBsZOaTkdkSCyyJF4Hoa-59" target="TBsZOaTkdkSCyyJF4Hoa-32">
          <mxGeometry relative="1" as="geometry">
            <Array as="points">
              <mxPoint x="1180" y="1240" />
              <mxPoint x="1180" y="640" />
            </Array>
          </mxGeometry>
        </mxCell>
        <mxCell id="TBsZOaTkdkSCyyJF4Hoa-59" value="Elimina el bloque procesado" style="whiteSpace=wrap;html=1;rounded=0;" vertex="1" parent="1">
          <mxGeometry x="960" y="1210" width="120" height="60" as="geometry" />
        </mxCell>
        <mxCell id="TBsZOaTkdkSCyyJF4Hoa-65" value="" style="edgeStyle=orthogonalEdgeStyle;rounded=0;orthogonalLoop=1;jettySize=auto;html=1;" edge="1" parent="1" source="TBsZOaTkdkSCyyJF4Hoa-62" target="TBsZOaTkdkSCyyJF4Hoa-64">
          <mxGeometry relative="1" as="geometry" />
        </mxCell>
        <mxCell id="TBsZOaTkdkSCyyJF4Hoa-67" style="edgeStyle=orthogonalEdgeStyle;rounded=0;orthogonalLoop=1;jettySize=auto;html=1;entryX=1;entryY=0.5;entryDx=0;entryDy=0;dashed=1;dashPattern=8 8;" edge="1" parent="1" source="TBsZOaTkdkSCyyJF4Hoa-62" target="TBsZOaTkdkSCyyJF4Hoa-66">
          <mxGeometry relative="1" as="geometry" />
        </mxCell>
        <mxCell id="TBsZOaTkdkSCyyJF4Hoa-62" value="Decodificar bloque" style="whiteSpace=wrap;html=1;rounded=0;" vertex="1" parent="1">
          <mxGeometry x="1450" y="360" width="120" height="60" as="geometry" />
        </mxCell>
        <mxCell id="TBsZOaTkdkSCyyJF4Hoa-69" value="" style="edgeStyle=orthogonalEdgeStyle;rounded=0;orthogonalLoop=1;jettySize=auto;html=1;" edge="1" parent="1" source="TBsZOaTkdkSCyyJF4Hoa-64" target="TBsZOaTkdkSCyyJF4Hoa-68">
          <mxGeometry relative="1" as="geometry" />
        </mxCell>
        <mxCell id="TBsZOaTkdkSCyyJF4Hoa-64" value="&lt;div&gt;Se obtiene el encabezado (Primeros 176 caracteres) &lt;br&gt;&lt;/div&gt;&lt;div&gt;header = &lt;em&gt;bindata&lt;/em&gt;[:176]&lt;/div&gt;" style="whiteSpace=wrap;html=1;rounded=0;" vertex="1" parent="1">
          <mxGeometry x="1420" y="490" width="180" height="70" as="geometry" />
        </mxCell>
        <mxCell id="TBsZOaTkdkSCyyJF4Hoa-66" value="Se espera una cadena binaria" style="whiteSpace=wrap;html=1;rounded=0;fillColor=#dae8fc;strokeColor=#6c8ebf;" vertex="1" parent="1">
          <mxGeometry x="1270" y="360" width="120" height="60" as="geometry" />
        </mxCell>
        <mxCell id="TBsZOaTkdkSCyyJF4Hoa-71" value="" style="edgeStyle=orthogonalEdgeStyle;rounded=0;orthogonalLoop=1;jettySize=auto;html=1;dashed=1;" edge="1" parent="1" source="TBsZOaTkdkSCyyJF4Hoa-68" target="TBsZOaTkdkSCyyJF4Hoa-70">
          <mxGeometry relative="1" as="geometry" />
        </mxCell>
        <mxCell id="TBsZOaTkdkSCyyJF4Hoa-73" value="" style="edgeStyle=orthogonalEdgeStyle;rounded=0;orthogonalLoop=1;jettySize=auto;html=1;" edge="1" parent="1" source="TBsZOaTkdkSCyyJF4Hoa-68" target="TBsZOaTkdkSCyyJF4Hoa-72">
          <mxGeometry relative="1" as="geometry" />
        </mxCell>
        <mxCell id="TBsZOaTkdkSCyyJF4Hoa-68" value="Se define la variable de bloques de datos que son bloques de 9 bytes" style="whiteSpace=wrap;html=1;rounded=0;" vertex="1" parent="1">
          <mxGeometry x="1435" y="635" width="150" height="60" as="geometry" />
        </mxCell>
        <mxCell id="TBsZOaTkdkSCyyJF4Hoa-70" value="&lt;p data-pm-slice=&quot;1 1 []&quot;&gt;Se divide la cadena binaria en bloques de 9 bytes (72 bits + 8 bits adicionales) utilizando una comprensión de listas. Cada bloque se obtiene a partir del índice 176 (después del encabezado) con un salto de 72+8 bits&lt;/p&gt;" style="whiteSpace=wrap;html=1;rounded=0;fillColor=#f8cecc;strokeColor=#b85450;" vertex="1" parent="1">
          <mxGeometry x="1654" y="613.75" width="350" height="102.5" as="geometry" />
        </mxCell>
        <mxCell id="TBsZOaTkdkSCyyJF4Hoa-75" value="" style="edgeStyle=orthogonalEdgeStyle;rounded=0;orthogonalLoop=1;jettySize=auto;html=1;" edge="1" parent="1" source="TBsZOaTkdkSCyyJF4Hoa-72" target="TBsZOaTkdkSCyyJF4Hoa-74">
          <mxGeometry relative="1" as="geometry" />
        </mxCell>
        <mxCell id="TBsZOaTkdkSCyyJF4Hoa-72" value="Se inicializan tres listas vacias, una para cada componente (x, y, z)" style="whiteSpace=wrap;html=1;rounded=0;" vertex="1" parent="1">
          <mxGeometry x="1450" y="730" width="120" height="60" as="geometry" />
        </mxCell>
        <mxCell id="TBsZOaTkdkSCyyJF4Hoa-77" value="" style="edgeStyle=orthogonalEdgeStyle;rounded=0;orthogonalLoop=1;jettySize=auto;html=1;" edge="1" parent="1" source="TBsZOaTkdkSCyyJF4Hoa-74" target="TBsZOaTkdkSCyyJF4Hoa-76">
          <mxGeometry relative="1" as="geometry" />
        </mxCell>
        <mxCell id="TBsZOaTkdkSCyyJF4Hoa-74" value="Para cada bloque en los bloques de datos" style="whiteSpace=wrap;html=1;rounded=0;" vertex="1" parent="1">
          <mxGeometry x="1450" y="840" width="120" height="60" as="geometry" />
        </mxCell>
        <mxCell id="TBsZOaTkdkSCyyJF4Hoa-79" value="" style="edgeStyle=orthogonalEdgeStyle;rounded=0;orthogonalLoop=1;jettySize=auto;html=1;dashed=1;dashPattern=8 8;" edge="1" parent="1" source="TBsZOaTkdkSCyyJF4Hoa-76" target="TBsZOaTkdkSCyyJF4Hoa-78">
          <mxGeometry relative="1" as="geometry" />
        </mxCell>
        <mxCell id="TBsZOaTkdkSCyyJF4Hoa-81" value="" style="edgeStyle=orthogonalEdgeStyle;rounded=0;orthogonalLoop=1;jettySize=auto;html=1;" edge="1" parent="1" source="TBsZOaTkdkSCyyJF4Hoa-76" target="TBsZOaTkdkSCyyJF4Hoa-80">
          <mxGeometry relative="1" as="geometry" />
        </mxCell>
        <mxCell id="TBsZOaTkdkSCyyJF4Hoa-76" value="&lt;p data-pm-slice=&quot;1 1 []&quot;&gt;Se obtienen los bytes correspondientes a los componentes x, y, z utilizando slices sobre el bloque actual.&lt;/p&gt;" style="whiteSpace=wrap;html=1;rounded=0;" vertex="1" parent="1">
          <mxGeometry x="1425" y="930" width="170" height="80" as="geometry" />
        </mxCell>
        <mxCell id="TBsZOaTkdkSCyyJF4Hoa-78" value="&lt;p data-pm-slice=&quot;1 1 []&quot;&gt;x_bin = bloque[4:24]&lt;/p&gt;&lt;p&gt; y_bin = bloque[28:48]&lt;/p&gt;&lt;p&gt;z_bin = bloque[52:72]&lt;/p&gt;" style="whiteSpace=wrap;html=1;rounded=0;fillColor=#f8cecc;strokeColor=#b85450;" vertex="1" parent="1">
          <mxGeometry x="1680" y="935" width="150" height="70" as="geometry" />
        </mxCell>
        <mxCell id="TBsZOaTkdkSCyyJF4Hoa-83" value="" style="edgeStyle=orthogonalEdgeStyle;rounded=0;orthogonalLoop=1;jettySize=auto;html=1;dashed=1;" edge="1" parent="1" source="TBsZOaTkdkSCyyJF4Hoa-80" target="TBsZOaTkdkSCyyJF4Hoa-82">
          <mxGeometry relative="1" as="geometry" />
        </mxCell>
        <mxCell id="TBsZOaTkdkSCyyJF4Hoa-85" value="" style="edgeStyle=orthogonalEdgeStyle;rounded=0;orthogonalLoop=1;jettySize=auto;html=1;" edge="1" parent="1" source="TBsZOaTkdkSCyyJF4Hoa-80" target="TBsZOaTkdkSCyyJF4Hoa-84">
          <mxGeometry relative="1" as="geometry" />
        </mxCell>
        <mxCell id="TBsZOaTkdkSCyyJF4Hoa-80" value="Se convierten los bytes binarios de cada componente a un número decimal utilizando &lt;code class=&quot;bg-bg-300 px-1 py-px text-accent-secondary-000 rounded-[0.3rem] text-[0.95em] whitespace-pre-wrap&quot;&gt;int(x_bin, 2)&lt;/code&gt;, &lt;code class=&quot;bg-bg-300 px-1 py-px text-accent-secondary-000 rounded-[0.3rem] text-[0.95em] whitespace-pre-wrap&quot;&gt;int(y_bin, 2)&lt;/code&gt; y &lt;code class=&quot;bg-bg-300 px-1 py-px text-accent-secondary-000 rounded-[0.3rem] text-[0.95em] whitespace-pre-wrap&quot;&gt;int(z_bin, 2)&lt;/code&gt;" style="whiteSpace=wrap;html=1;rounded=0;" vertex="1" parent="1">
          <mxGeometry x="1402.5" y="1050" width="215" height="90" as="geometry" />
        </mxCell>
        <mxCell id="TBsZOaTkdkSCyyJF4Hoa-82" value="&lt;code class=&quot;bg-bg-300 px-1 py-px text-accent-secondary-000 rounded-[0.3rem] text-[0.95em] whitespace-pre-wrap&quot;&gt;2&lt;/code&gt; indica que la base es binaria." style="whiteSpace=wrap;html=1;rounded=0;fillColor=#f8cecc;strokeColor=#b85450;" vertex="1" parent="1">
          <mxGeometry x="1680" y="1065" width="120" height="60" as="geometry" />
        </mxCell>
        <mxCell id="TBsZOaTkdkSCyyJF4Hoa-94" value="" style="edgeStyle=orthogonalEdgeStyle;rounded=0;orthogonalLoop=1;jettySize=auto;html=1;" edge="1" parent="1" source="TBsZOaTkdkSCyyJF4Hoa-84" target="TBsZOaTkdkSCyyJF4Hoa-93">
          <mxGeometry relative="1" as="geometry" />
        </mxCell>
        <mxCell id="TBsZOaTkdkSCyyJF4Hoa-84" value="Los valores decimales de x, y, z se agregan a las listas correspondientes " style="whiteSpace=wrap;html=1;rounded=0;" vertex="1" parent="1">
          <mxGeometry x="1440" y="1185" width="140" height="65" as="geometry" />
        </mxCell>
        <mxCell id="TBsZOaTkdkSCyyJF4Hoa-89" value="" style="edgeStyle=orthogonalEdgeStyle;rounded=0;orthogonalLoop=1;jettySize=auto;html=1;" edge="1" parent="1" source="TBsZOaTkdkSCyyJF4Hoa-86" target="TBsZOaTkdkSCyyJF4Hoa-88">
          <mxGeometry relative="1" as="geometry" />
        </mxCell>
        <mxCell id="TBsZOaTkdkSCyyJF4Hoa-98" style="edgeStyle=orthogonalEdgeStyle;rounded=0;orthogonalLoop=1;jettySize=auto;html=1;entryX=0;entryY=0.5;entryDx=0;entryDy=0;" edge="1" parent="1" source="TBsZOaTkdkSCyyJF4Hoa-86" target="TBsZOaTkdkSCyyJF4Hoa-74">
          <mxGeometry relative="1" as="geometry">
            <Array as="points">
              <mxPoint x="1310" y="1480" />
              <mxPoint x="1310" y="870" />
            </Array>
          </mxGeometry>
        </mxCell>
        <mxCell id="TBsZOaTkdkSCyyJF4Hoa-86" value="¿Quedan mas bloques?" style="rhombus;whiteSpace=wrap;html=1;rounded=0;" vertex="1" parent="1">
          <mxGeometry x="1450" y="1433.5" width="120" height="87.5" as="geometry" />
        </mxCell>
        <mxCell id="TBsZOaTkdkSCyyJF4Hoa-88" value="Fin" style="whiteSpace=wrap;html=1;rounded=0;fillColor=#dae8fc;strokeColor=#6c8ebf;" vertex="1" parent="1">
          <mxGeometry x="1450" y="1614.75" width="120" height="60" as="geometry" />
        </mxCell>
        <mxCell id="TBsZOaTkdkSCyyJF4Hoa-91" value="Si" style="text;html=1;align=center;verticalAlign=middle;whiteSpace=wrap;rounded=0;" vertex="1" parent="1">
          <mxGeometry x="1365" y="1451" width="60" height="30" as="geometry" />
        </mxCell>
        <mxCell id="TBsZOaTkdkSCyyJF4Hoa-92" value="No" style="text;html=1;align=center;verticalAlign=middle;whiteSpace=wrap;rounded=0;" vertex="1" parent="1">
          <mxGeometry x="1510" y="1561" width="60" height="30" as="geometry" />
        </mxCell>
        <mxCell id="TBsZOaTkdkSCyyJF4Hoa-95" style="edgeStyle=orthogonalEdgeStyle;rounded=0;orthogonalLoop=1;jettySize=auto;html=1;" edge="1" parent="1" source="TBsZOaTkdkSCyyJF4Hoa-93" target="TBsZOaTkdkSCyyJF4Hoa-86">
          <mxGeometry relative="1" as="geometry" />
        </mxCell>
        <mxCell id="TBsZOaTkdkSCyyJF4Hoa-93" value="Devuelve los cuatro valores, componentes x, y, z y los encabezados " style="whiteSpace=wrap;html=1;rounded=0;" vertex="1" parent="1">
          <mxGeometry x="1450" y="1332.5" width="120" height="60" as="geometry" />
        </mxCell>
        <mxCell id="TBsZOaTkdkSCyyJF4Hoa-96" value="Fin" style="whiteSpace=wrap;html=1;rounded=0;fillColor=#dae8fc;strokeColor=#6c8ebf;" vertex="1" parent="1">
          <mxGeometry x="750" y="1010" width="120" height="60" as="geometry" />
        </mxCell>
      </root>
    </mxGraphModel>
  </diagram>
</mxfile>
